  0
SECTION
  2
HEADER
  9
$ACADVER
  1
AC1014
  9
$ACADMAINTVER
 70
     9
  9
$DWGCODEPAGE
  3
ANSI_1252
  9
$INSBASE
 10
0.0
 20
0.0
 30
0.0
  9
$EXTMIN
 10
12.87776033161106
 20
9.919316269384012
 30
0.0
  9
$EXTMAX
 10
226.5111288299983
 20
150.8634992363118
 30
0.0
  9
$LIMMIN
 10
0.0
 20
0.0
  9
$LIMMAX
 10
420.0
 20
297.0
  9
$ORTHOMODE
 70
     0
  9
$REGENMODE
 70
     1
  9
$FILLMODE
 70
     1
  9
$QTEXTMODE
 70
     0
  9
$MIRRTEXT
 70
     0
  9
$DRAGMODE
 70
     2
  9
$LTSCALE
 40
1.0
  9
$OSMODE
 70
   511
  9
$ATTMODE
 70
     1
  9
$TEXTSIZE
 40
2.5
  9
$TRACEWID
 40
1.0
  9
$TEXTSTYLE
  7
STANDARD
  9
$CLAYER
  8
CV-SAND1
  9
$CELTYPE
  6
BYLAYER
  9
$CECOLOR
 62
   256
  9
$CELTSCALE
 40
1.0
  9
$DELOBJ
 70
     1
  9
$DISPSILH
 70
     0
  9
$DIMSCALE
 40
1.0
  9
$DIMASZ
 40
2.5
  9
$DIMEXO
 40
0.625
  9
$DIMDLI
 40
3.75
  9
$DIMRND
 40
0.0
  9
$DIMDLE
 40
0.0
  9
$DIMEXE
 40
1.25
  9
$DIMTP
 40
0.0
  9
$DIMTM
 40
0.0
  9
$DIMTXT
 40
2.5
  9
$DIMCEN
 40
2.5
  9
$DIMTSZ
 40
0.0
  9
$DIMTOL
 70
     0
  9
$DIMLIM
 70
     0
  9
$DIMTIH
 70
     0
  9
$DIMTOH
 70
     0
  9
$DIMSE1
 70
     0
  9
$DIMSE2
 70
     0
  9
$DIMTAD
 70
     1
  9
$DIMZIN
 70
     8
  9
$DIMBLK
  1

  9
$DIMASO
 70
     1
  9
$DIMSHO
 70
     1
  9
$DIMPOST
  1

  9
$DIMAPOST
  1

  9
$DIMALT
 70
     0
  9
$DIMALTD
 70
     3
  9
$DIMALTF
 40
0.03937007874016
  9
$DIMLFAC
 40
1.0
  9
$DIMTOFL
 70
     1
  9
$DIMTVP
 40
0.0
  9
$DIMTIX
 70
     0
  9
$DIMSOXD
 70
     0
  9
$DIMSAH
 70
     0
  9
$DIMBLK1
  1

  9
$DIMBLK2
  1

  9
$DIMSTYLE
  2
ISO-25
  9
$DIMCLRD
 70
     0
  9
$DIMCLRE
 70
     0
  9
$DIMCLRT
 70
     0
  9
$DIMTFAC
 40
1.0
  9
$DIMGAP
 40
0.625
  9
$DIMJUST
 70
     0
  9
$DIMSD1
 70
     0
  9
$DIMSD2
 70
     0
  9
$DIMTOLJ
 70
     0
  9
$DIMTZIN
 70
     8
  9
$DIMALTZ
 70
     0
  9
$DIMALTTZ
 70
     0
  9
$DIMFIT
 70
     3
  9
$DIMUPT
 70
     0
  9
$DIMUNIT
 70
     2
  9
$DIMDEC
 70
     2
  9
$DIMTDEC
 70
     2
  9
$DIMALTU
 70
     2
  9
$DIMALTTD
 70
     3
  9
$DIMTXSTY
  7
STANDARD
  9
$DIMAUNIT
 70
     0
  9
$LUNITS
 70
     2
  9
$LUPREC
 70
     4
  9
$SKETCHINC
 40
1.0
  9
$FILLETRAD
 40
0.0
  9
$AUNITS
 70
     0
  9
$AUPREC
 70
     0
  9
$MENU
  1
.
  9
$ELEVATION
 40
0.0
  9
$PELEVATION
 40
0.0
  9
$THICKNESS
 40
0.0
  9
$LIMCHECK
 70
     0
  9
$CHAMFERA
 40
0.0
  9
$CHAMFERB
 40
0.0
  9
$CHAMFERC
 40
0.0
  9
$CHAMFERD
 40
0.0
  9
$SKPOLY
 70
     0
  9
$TDCREATE
 40
2458581.461041667
  9
$TDUPDATE
 40
2458582.59802603
  9
$TDINDWG
 40
1.0539775347
  9
$TDUSRTIMER
 40
0.000644213
  9
$USRTIMER
 70
     1
  9
$ANGBASE
 50
0.0
  9
$ANGDIR
 70
     0
  9
$PDMODE
 70
     0
  9
$PDSIZE
 40
0.0
  9
$PLINEWID
 40
0.0
  9
$COORDS
 70
     1
  9
$SPLFRAME
 70
     0
  9
$SPLINETYPE
 70
     6
  9
$SPLINESEGS
 70
     8
  9
$ATTDIA
 70
     0
  9
$ATTREQ
 70
     1
  9
$HANDLING
 70
     1
  9
$HANDSEED
  5
54C
  9
$SURFTAB1
 70
     6
  9
$SURFTAB2
 70
     6
  9
$SURFTYPE
 70
     6
  9
$SURFU
 70
     6
  9
$SURFV
 70
     6
  9
$UCSNAME
  2

  9
$UCSORG
 10
0.0
 20
0.0
 30
0.0
  9
$UCSXDIR
 10
1.0
 20
0.0
 30
0.0
  9
$UCSYDIR
 10
0.0
 20
1.0
 30
0.0
  9
$PUCSNAME
  2

  9
$PUCSORG
 10
0.0
 20
0.0
 30
0.0
  9
$PUCSXDIR
 10
1.0
 20
0.0
 30
0.0
  9
$PUCSYDIR
 10
0.0
 20
1.0
 30
0.0
  9
$USERI1
 70
     0
  9
$USERI2
 70
     0
  9
$USERI3
 70
     0
  9
$USERI4
 70
     0
  9
$USERI5
 70
     0
  9
$USERR1
 40
0.0
  9
$USERR2
 40
0.0
  9
$USERR3
 40
0.0
  9
$USERR4
 40
0.0
  9
$USERR5
 40
0.0
  9
$WORLDVIEW
 70
     1
  9
$SHADEDGE
 70
     3
  9
$SHADEDIF
 70
    70
  9
$TILEMODE
 70
     1
  9
$MAXACTVP
 70
    64
  9
$PINSBASE
 10
0.0
 20
0.0
 30
0.0
  9
$PLIMCHECK
 70
     0
  9
$PEXTMIN
 10
0.0
 20
0.0
 30
0.0
  9
$PEXTMAX
 10
0.0
 20
0.0
 30
0.0
  9
$PLIMMIN
 10
0.0
 20
0.0
  9
$PLIMMAX
 10
0.0
 20
0.0
  9
$UNITMODE
 70
     0
  9
$VISRETAIN
 70
     1
  9
$PLINEGEN
 70
     0
  9
$PSLTSCALE
 70
     1
  9
$TREEDEPTH
 70
  3020
  9
$PICKSTYLE
 70
     1
  9
$CMLSTYLE
  2
STANDARD
  9
$CMLJUST
 70
     0
  9
$CMLSCALE
 40
20.0
  9
$PROXYGRAPHICS
 70
     1
  9
$MEASUREMENT
 70
     1
  0
ENDSEC
  0
SECTION
  2
CLASSES
  0
CLASS
  1
ACDBDICTIONARYWDFLT
  2
AcDbDictionaryWithDefault
  3
ObjectDBX Classes
 90
        0
280
     0
281
     0
  0
CLASS
  1
DICTIONARYVAR
  2
AcDbDictionaryVar
  3
ObjectDBX Classes
 90
        0
280
     0
281
     0
  0
CLASS
  1
TABLESTYLE
  2
AcDbTableStyle
  3
ObjectDBX Classes
 90
     4095
280
     0
281
     0
  0
CLASS
  1
MATERIAL
  2
AcDbMaterial
  3
ObjectDBX Classes
 90
     1153
280
     0
281
     0
  0
CLASS
  1
VISUALSTYLE
  2
AcDbVisualStyle
  3
ObjectDBX Classes
 90
     4095
280
     0
281
     0
  0
CLASS
  1
SCALE
  2
AcDbScale
  3
ObjectDBX Classes
 90
     1153
280
     0
281
     0
  0
CLASS
  1
MLEADERSTYLE
  2
AcDbMLeaderStyle
  3
ACDB_MLEADERSTYLE_CLASS
 90
     4095
280
     0
281
     0
  0
CLASS
  1
CELLSTYLEMAP
  2
AcDbCellStyleMap
  3
ObjectDBX Classes
 90
     1152
280
     0
281
     0
  0
CLASS
  1
EXACXREFPANELOBJECT
  2
ExAcXREFPanelObject
  3
EXAC_ESW
 90
     1025
280
     1
281
     0
  0
CLASS
  1
NPOCOLLECTION
  2
AcDbImpNonPersistentObjectsCollection
  3
ObjectDBX Classes
 90
     1153
280
     1
281
     0
  0
CLASS
  1
LAYER_INDEX
  2
AcDbLayerIndex
  3
ObjectDBX Classes
 90
        0
280
     0
281
     0
  0
CLASS
  1
SPATIAL_INDEX
  2
AcDbSpatialIndex
  3
AutoCAD 2000
 90
        0
280
     0
281
     0
  0
CLASS
  1
IDBUFFER
  2
AcDbIdBuffer
  3
ObjectDBX Classes
 90
        0
280
     0
281
     0
  0
CLASS
  1
ACDBSECTIONVIEWSTYLE
  2
AcDbSectionViewStyle
  3
ObjectDBX Classes
 90
     1025
280
     0
281
     0
  0
CLASS
  1
ACDBDETAILVIEWSTYLE
  2
AcDbDetailViewStyle
  3
ObjectDBX Classes
 90
     1025
280
     0
281
     0
  0
CLASS
  1
SORTENTSTABLE
  2
AcDbSortentsTable
  3
ObjectDBX Classes
 90
        0
280
     0
281
     0
  0
CLASS
  1
PLOTSETTINGS
  2
AcDbPlotSettings
  3
ObjectDBX Classes
 90
        0
280
     0
281
     0
  0
CLASS
  1
SUN
  2
AcDbSun
  3
SCENEOE
 90
     1153
280
     0
281
     0
  0
CLASS
  1
XRECORD
  2
AcDbXrecord
  3
ObjectDBX Classes
 90
        0
280
     0
281
     0
  0
CLASS
  1
LWPOLYLINE
  2
AcDbPolyline
  3
ObjectDBX Classes
 90
        0
280
     0
281
     1
  0
CLASS
  1
HATCH
  2
AcDbHatch
  3
ObjectDBX Classes
 90
        0
280
     0
281
     1
  0
ENDSEC
  0
SECTION
  2
TABLES
  0
TABLE
  2
VPORT
  5
8
330
0
100
AcDbSymbolTable
 70
     1
1001
ACAD
1000
DbSaveVer
1071
       51
  0
VPORT
  5
EA
330
8
100
AcDbSymbolTableRecord
100
AcDbViewportTableRecord
  2
*ACTIVE
 70
     0
 10
0.0
 20
0.0
 11
1.0
 21
1.0
 12
174.5630148543213
 22
76.15179919671593
 13
0.0
 23
0.0
 14
10.0
 24
10.0
 15
10.0
 25
10.0
 16
0.0
 26
0.0
 36
1.0
 17
0.0
 27
0.0
 37
0.0
 40
177.2866173515605
 41
2.393867924528302
 42
50.0
 43
0.0
 44
0.0
 50
0.0
 51
0.0
 71
    16
 72
  1000
 73
     1
 74
     3
 75
     0
 76
     0
 77
     0
 78
     0
1001
ACAD_NAV_VCDISPLAY
1070
     3
  0
ENDTAB
  0
TABLE
  2
LTYPE
  5
5
330
0
100
AcDbSymbolTable
 70
     1
  0
LTYPE
  5
14
330
5
100
AcDbSymbolTableRecord
100
AcDbLinetypeTableRecord
  2
BYBLOCK
 70
     0
  3

 72
    65
 73
     0
 40
0.0
  0
LTYPE
  5
15
330
5
100
AcDbSymbolTableRecord
100
AcDbLinetypeTableRecord
  2
BYLAYER
 70
     0
  3

 72
    65
 73
     0
 40
0.0
  0
LTYPE
  5
16
330
5
100
AcDbSymbolTableRecord
100
AcDbLinetypeTableRecord
  2
CONTINUOUS
 70
     0
  3
Solid line
 72
    65
 73
     0
 40
0.0
  0
ENDTAB
  0
TABLE
  2
LAYER
  5
2
102
{ACAD_XDICTIONARY
360
1FF
102
}
330
0
100
AcDbSymbolTable
 70
     7
  0
LAYER
  5
10
330
2
100
AcDbSymbolTableRecord
100
AcDbLayerTableRecord
  2
0
 70
     0
 62
     7
  6
CONTINUOUS
  0
LAYER
  5
274
330
2
100
AcDbSymbolTableRecord
100
AcDbLayerTableRecord
  2
ARDUINO
 70
     0
 62
     7
  6
CONTINUOUS
1001
ACAECLAYERSTANDARD
1000

1000

  0
LAYER
  5
275
330
2
100
AcDbSymbolTableRecord
100
AcDbLayerTableRecord
  2
DIMENSIONI
 70
     0
 62
     6
  6
CONTINUOUS
1001
ACAECLAYERSTANDARD
1000

1000

  0
LAYER
  5
276
330
2
100
AcDbSymbolTableRecord
100
AcDbLayerTableRecord
  2
LIVELLO_1
 70
     0
 62
     7
  6
CONTINUOUS
  0
LAYER
  5
277
330
2
100
AcDbSymbolTableRecord
100
AcDbLayerTableRecord
  2
CV-SAND1
 70
     0
 62
     7
  6
CONTINUOUS
1001
ACAECLAYERSTANDARD
1000

1000

1001
ACCMTRANSPARENCY
1071
        0
  0
LAYER
  5
278
330
2
100
AcDbSymbolTableRecord
100
AcDbLayerTableRecord
  2
CV-SAND2
 70
     0
 62
     7
  6
CONTINUOUS
1001
ACAECLAYERSTANDARD
1000

1000

1001
ACCMTRANSPARENCY
1071
        0
  0
LAYER
  5
408
330
2
100
AcDbSymbolTableRecord
100
AcDbLayerTableRecord
  2
CV-KOMBAT
 70
     0
 62
     7
  6
CONTINUOUS
1001
ACAECLAYERSTANDARD
1000

1000

  0
ENDTAB
  0
TABLE
  2
STYLE
  5
3
330
0
100
AcDbSymbolTable
 70
     2
  0
STYLE
  5
11
330
3
100
AcDbSymbolTableRecord
100
AcDbTextStyleTableRecord
  2
STANDARD
 70
     0
 40
0.0
 41
1.0
 50
0.0
 71
     0
 42
2.5
  3
arial.ttf
  4

1001
ACAD
1000
Arial
1071
       34
  0
STYLE
  5
132
330
3
100
AcDbSymbolTableRecord
100
AcDbTextStyleTableRecord
  2
ANNOTATIVE
 70
     0
 40
0.0
 41
1.0
 50
0.0
 71
     0
 42
2.5
  3
arial.ttf
  4

1001
ACADANNOTATIVE
1000
AnnotativeData
1002
{
1070
     1
1070
     1
1002
}
1001
ACAD
1000
Arial
1071
       34
  0
ENDTAB
  0
TABLE
  2
VIEW
  5
6
330
0
100
AcDbSymbolTable
 70
     0
  0
ENDTAB
  0
TABLE
  2
UCS
  5
7
330
0
100
AcDbSymbolTable
 70
     0
  0
ENDTAB
  0
TABLE
  2
APPID
  5
9
330
0
100
AcDbSymbolTable
 70
    11
  0
APPID
  5
12
330
9
100
AcDbSymbolTableRecord
100
AcDbRegAppTableRecord
  2
ACAD
 70
     0
  0
APPID
  5
9E
330
9
100
AcDbSymbolTableRecord
100
AcDbRegAppTableRecord
  2
ACAD_PSEXT
 70
     0
  0
APPID
  5
133
330
9
100
AcDbSymbolTableRecord
100
AcDbRegAppTableRecord
  2
ACADANNOPO
 70
     0
  0
APPID
  5
134
330
9
100
AcDbSymbolTableRecord
100
AcDbRegAppTableRecord
  2
ACADANNOTATIVE
 70
     0
  0
APPID
  5
135
330
9
100
AcDbSymbolTableRecord
100
AcDbRegAppTableRecord
  2
ACAD_DSTYLE_DIMJAG
 70
     0
  0
APPID
  5
136
330
9
100
AcDbSymbolTableRecord
100
AcDbRegAppTableRecord
  2
ACAD_DSTYLE_DIMTALN
 70
     0
  0
APPID
  5
165
330
9
100
AcDbSymbolTableRecord
100
AcDbRegAppTableRecord
  2
ACAD_MLEADERVER
 70
     0
  0
APPID
  5
217
330
9
100
AcDbSymbolTableRecord
100
AcDbRegAppTableRecord
  2
ACAD_NAV_VCDISPLAY
 70
     0
  0
APPID
  5
279
330
9
100
AcDbSymbolTableRecord
100
AcDbRegAppTableRecord
  2
ACAECLAYERSTANDARD
 70
     0
  0
APPID
  5
27A
330
9
100
AcDbSymbolTableRecord
100
AcDbRegAppTableRecord
  2
ACCMTRANSPARENCY
 70
     0
  0
APPID
  5
528
330
9
100
AcDbSymbolTableRecord
100
AcDbRegAppTableRecord
  2
ACLAYERTOOLS
 70
     0
  0
ENDTAB
  0
TABLE
  2
DIMSTYLE
  5
A
330
0
100
AcDbSymbolTable
 70
     3
  0
DIMSTYLE
105
1B0
330
A
100
AcDbSymbolTableRecord
100
AcDbDimStyleTableRecord
  2
STANDARD
 70
     0
  3

  4

  5

  6

  7

 40
1.0
 41
0.18
 42
0.0625
 43
0.38
 44
0.18
 45
0.0
 46
0.0
 47
0.0
 48
0.0
140
0.18
141
0.09
142
0.0
143
25.4
144
1.0
145
0.0
146
1.0
147
0.09
 71
     0
 72
     0
 73
     1
 74
     1
 75
     0
 76
     0
 77
     0
 78
     0
170
     0
171
     2
172
     0
173
     0
174
     0
175
     0
176
     0
177
     0
178
     0
270
     2
271
     4
272
     4
273
     2
274
     2
340
11
275
     0
280
     0
281
     0
282
     0
283
     1
284
     0
285
     0
286
     0
287
     3
288
     0
  0
DIMSTYLE
105
137
330
A
100
AcDbSymbolTableRecord
100
AcDbDimStyleTableRecord
  2
ANNOTATIVE
 70
     0
  3

  4

  5

  6

  7

 40
0.0
 41
2.5
 42
0.625
 43
3.75
 44
1.25
 45
0.0
 46
0.0
 47
0.0
 48
0.0
140
2.5
141
2.5
142
0.0
143
0.03937007874016
144
1.0
145
0.0
146
1.0
147
0.625
 71
     0
 72
     0
 73
     0
 74
     0
 75
     0
 76
     0
 77
     1
 78
     8
170
     0
171
     3
172
     1
173
     0
174
     0
175
     0
176
     0
177
     0
178
     0
270
     2
271
     2
272
     2
273
     2
274
     3
340
11
275
     0
280
     0
281
     0
282
     0
283
     0
284
     8
285
     0
286
     0
287
     3
288
     0
1001
ACADANNOTATIVE
1000
AnnotativeData
1002
{
1070
     1
1070
     1
1002
}
1001
ACAD_DSTYLE_DIMJAG
1070
   388
1040
1.5
1001
ACAD_DSTYLE_DIMTALN
1070
   392
1070
     0
  0
DIMSTYLE
105
27
330
A
100
AcDbSymbolTableRecord
100
AcDbDimStyleTableRecord
  2
ISO-25
 70
     0
  3

  4

  5

  6

  7

 40
1.0
 41
2.5
 42
0.625
 43
3.75
 44
1.25
 45
0.0
 46
0.0
 47
0.0
 48
0.0
140
2.5
141
2.5
142
0.0
143
0.03937007874016
144
1.0
145
0.0
146
1.0
147
0.625
 71
     0
 72
     0
 73
     0
 74
     0
 75
     0
 76
     0
 77
     1
 78
     8
170
     0
171
     3
172
     1
173
     0
174
     0
175
     0
176
     0
177
     0
178
     0
270
     2
271
     2
272
     2
273
     2
274
     3
340
11
275
     0
280
     0
281
     0
282
     0
283
     0
284
     8
285
     0
286
     0
287
     3
288
     0
  0
ENDTAB
  0
TABLE
  2
BLOCK_RECORD
  5
1
330
0
100
AcDbSymbolTable
 70
     1
  0
BLOCK_RECORD
  5
1F
102
{ACAD_XDICTIONARY
360
1CE
102
}
330
1
100
AcDbSymbolTableRecord
100
AcDbBlockTableRecord
  2
*MODEL_SPACE
  0
BLOCK_RECORD
  5
D2
330
1
100
AcDbSymbolTableRecord
100
AcDbBlockTableRecord
  2
*PAPER_SPACE
  0
BLOCK_RECORD
  5
D6
330
1
100
AcDbSymbolTableRecord
100
AcDbBlockTableRecord
  2
*PAPER_SPACE0
  0
ENDTAB
  0
ENDSEC
  0
SECTION
  2
BLOCKS
  0
BLOCK
  5
20
330
1F
100
AcDbEntity
  8
0
100
AcDbBlockBegin
  2
*MODEL_SPACE
 70
     0
 10
0.0
 20
0.0
 30
0.0
  3
*MODEL_SPACE
  1

  0
ENDBLK
  5
21
330
1F
100
AcDbEntity
  8
0
100
AcDbBlockEnd
  0
BLOCK
  5
D4
330
D2
100
AcDbEntity
 67
     1
  8
0
100
AcDbBlockBegin
  2
*PAPER_SPACE
 70
     0
 10
0.0
 20
0.0
 30
0.0
  3
*PAPER_SPACE
  1

  0
ENDBLK
  5
D5
330
D2
100
AcDbEntity
 67
     1
  8
0
100
AcDbBlockEnd
  0
BLOCK
  5
D8
330
D6
100
AcDbEntity
  8
0
100
AcDbBlockBegin
  2
*PAPER_SPACE0
 70
     0
 10
0.0
 20
0.0
 30
0.0
  3
*PAPER_SPACE0
  1

  0
ENDBLK
  5
D9
330
D6
100
AcDbEntity
  8
0
100
AcDbBlockEnd
  0
ENDSEC
  0
SECTION
  2
ENTITIES
  0
CIRCLE
  5
362
330
1F
100
AcDbEntity
  8
CV-SAND2
 62
     5
100
AcDbCircle
 10
147.7611288299984
 20
59.99140775284793
 30
0.0
 40
12.0
  0
CIRCLE
  5
363
330
1F
100
AcDbEntity
  8
CV-SAND2
 62
     5
100
AcDbCircle
 10
200.2611288299984
 20
59.99140775284786
 30
0.0
 40
13.0
  0
CIRCLE
  5
369
330
1F
100
AcDbEntity
  8
CV-SAND2
  6
BYBLOCK
 62
     5
100
AcDbCircle
 10
147.7611288299984
 20
85.39140775284798
 30
0.0
 40
4.0
  0
CIRCLE
  5
36A
330
1F
100
AcDbEntity
  8
CV-SAND2
  6
BYBLOCK
 62
     5
100
AcDbCircle
 10
200.2611288299984
 20
85.39140775284793
 30
0.0
 40
4.0
  0
CIRCLE
  5
36B
330
1F
100
AcDbEntity
  8
CV-SAND2
  6
BYBLOCK
 62
     5
100
AcDbCircle
 10
147.7611288299984
 20
110.7914077528479
 30
0.0
 40
6.2
  0
CIRCLE
  5
36C
330
1F
100
AcDbEntity
  8
CV-SAND2
  6
BYBLOCK
 62
     5
100
AcDbCircle
 10
200.2611288299984
 20
110.7914077528479
 30
0.0
 40
3.7
  0
LINE
  5
36E
330
1F
100
AcDbEntity
  8
CV-SAND1
  6
BYBLOCK
 62
     5
100
AcDbLine
 10
17.87776033161106
 20
9.919316269384012
 30
0.0
 11
112.8777603316109
 21
9.919316269384012
 31
0.0
  0
ARC
  5
36F
330
1F
100
AcDbEntity
  8
CV-SAND1
  6
BYBLOCK
 62
     5
100
AcDbCircle
 10
112.8777603316109
 20
14.91931626938401
 30
0.0
 40
5.0
100
AcDbArc
 50
270.0
 51
0.0
  0
ARC
  5
370
330
1F
100
AcDbEntity
  8
CV-SAND1
  6
BYBLOCK
 62
     5
100
AcDbCircle
 10
17.87776033161106
 20
14.91931626938401
 30
0.0
 40
5.0
100
AcDbArc
 50
180.0
 51
270.0
  0
LINE
  5
371
330
1F
100
AcDbEntity
  8
CV-SAND1
  6
BYBLOCK
 62
     5
100
AcDbLine
 10
12.87776033161106
 20
139.8634992363118
 30
0.0
 11
12.87776033161106
 21
14.91931626938401
 31
0.0
  0
ARC
  5
372
330
1F
100
AcDbEntity
  8
CV-SAND1
  6
BYBLOCK
 62
     5
100
AcDbCircle
 10
17.87776033161106
 20
139.8634992363118
 30
0.0
 40
5.0
100
AcDbArc
 50
90.0
 51
180.0
  0
LINE
  5
373
330
1F
100
AcDbEntity
  8
CV-SAND1
  6
BYBLOCK
 62
     5
100
AcDbLine
 10
112.8777603316109
 20
144.8634992363118
 30
0.0
 11
17.87776033161106
 21
144.8634992363118
 31
0.0
  0
LINE
  5
374
330
1F
100
AcDbEntity
  8
CV-SAND1
  6
BYBLOCK
 62
     5
100
AcDbLine
 10
117.8777603316109
 20
139.8634992363118
 30
0.0
 11
117.8777603316109
 21
14.91931626938401
 31
0.0
  0
ARC
  5
375
330
1F
100
AcDbEntity
  8
CV-SAND1
  6
BYBLOCK
 62
     5
100
AcDbCircle
 10
112.8777603316109
 20
139.8634992363118
 30
0.0
 40
5.0
100
AcDbArc
 50
0.0
 51
90.0
  0
LINE
  5
376
330
1F
100
AcDbEntity
  8
CV-SAND2
  6
BYBLOCK
 62
     5
100
AcDbLine
 10
126.5111288299983
 20
9.919316269384046
 30
0.0
 11
221.5111288299981
 21
9.919316269384046
 31
0.0
  0
ARC
  5
377
330
1F
100
AcDbEntity
  8
CV-SAND2
  6
BYBLOCK
 62
     5
100
AcDbCircle
 10
221.5111288299981
 20
14.91931626938404
 30
0.0
 40
5.0
100
AcDbArc
 50
270.0
 51
0.0
  0
ARC
  5
378
330
1F
100
AcDbEntity
  8
CV-SAND2
  6
BYBLOCK
 62
     5
100
AcDbCircle
 10
126.5111288299983
 20
14.91931626938404
 30
0.0
 40
5.0
100
AcDbArc
 50
180.0
 51
270.0
  0
LINE
  5
379
330
1F
100
AcDbEntity
  8
CV-SAND2
  6
BYBLOCK
 62
     5
100
AcDbLine
 10
121.5111288299983
 20
139.8634992363118
 30
0.0
 11
121.5111288299983
 21
14.91931626938404
 31
0.0
  0
LINE
  5
37A
330
1F
100
AcDbEntity
  8
CV-SAND2
  6
BYBLOCK
 62
     5
100
AcDbLine
 10
221.5111288299981
 20
144.8634992363118
 30
0.0
 11
199.8353240152144
 21
144.8634992363118
 31
0.0
  0
ARC
  5
37B
330
1F
100
AcDbEntity
  8
CV-SAND2
  6
BYBLOCK
 62
     5
100
AcDbCircle
 10
199.8353240152144
 20
146.8634992363118
 30
0.0
 40
2.0
100
AcDbArc
 50
180.0
 51
270.0
  0
LINE
  5
37C
330
1F
100
AcDbEntity
  8
CV-SAND2
  6
BYBLOCK
 62
     5
100
AcDbLine
 10
147.8353240152143
 20
144.8634992363118
 30
0.0
 11
126.5111288299983
 21
144.8634992363118
 31
0.0
  0
ARC
  5
37D
330
1F
100
AcDbEntity
  8
CV-SAND2
  6
BYBLOCK
 62
     5
100
AcDbCircle
 10
147.8353240152143
 20
146.8634992363118
 30
0.0
 40
2.0
100
AcDbArc
 50
270.0
 51
0.0
  0
ARC
  5
37E
330
1F
100
AcDbEntity
  8
CV-SAND2
  6
BYBLOCK
 62
     5
100
AcDbCircle
 10
126.5111288299983
 20
139.8634992363118
 30
0.0
 40
5.0
100
AcDbArc
 50
90.0
 51
180.0
  0
LINE
  5
37F
330
1F
100
AcDbEntity
  8
CV-SAND2
  6
BYBLOCK
 62
     5
100
AcDbLine
 10
226.5111288299983
 20
139.8634992363118
 30
0.0
 11
226.5111288299983
 21
14.91931626938407
 31
0.0
  0
ARC
  5
380
330
1F
100
AcDbEntity
  8
CV-SAND2
  6
BYBLOCK
 62
     5
100
AcDbCircle
 10
221.5111288299981
 20
139.8634992363118
 30
0.0
 40
5.0
100
AcDbArc
 50
0.0
 51
90.0
  0
LINE
  5
387
330
1F
100
AcDbEntity
  8
CV-SAND1
  6
BYBLOCK
 62
     5
100
AcDbLine
 10
40.37776033161105
 20
135.5634992363117
 30
0.0
 11
90.37776033161106
 21
135.5634992363117
 31
0.0
  0
LINE
  5
388
330
1F
100
AcDbEntity
  8
CV-SAND1
  6
BYBLOCK
 62
     5
100
AcDbLine
 10
90.37776033161106
 20
131.5634992363117
 30
0.0
 11
40.37776033161105
 21
131.5634992363117
 31
0.0
  0
LINE
  5
389
330
1F
100
AcDbEntity
  8
CV-SAND2
  6
BYBLOCK
 62
     5
100
AcDbLine
 10
149.8353240152144
 20
146.8634992363118
 30
0.0
 11
149.8353240152144
 21
148.8634992363118
 31
0.0
  0
ARC
  5
38A
330
1F
100
AcDbEntity
  8
CV-SAND2
  6
BYBLOCK
 62
     5
100
AcDbCircle
 10
151.8353240152144
 20
148.8634992363118
 30
0.0
 40
2.0
100
AcDbArc
 50
90.0
 51
180.0
  0
LINE
  5
38B
330
1F
100
AcDbEntity
  8
CV-SAND2
  6
BYBLOCK
 62
     5
100
AcDbLine
 10
197.8353240152144
 20
148.8634992363118
 30
0.0
 11
197.8353240152144
 21
146.8634992363118
 31
0.0
  0
ARC
  5
38C
330
1F
100
AcDbEntity
  8
CV-SAND2
  6
BYBLOCK
 62
     5
100
AcDbCircle
 10
195.8353240152144
 20
148.8634992363118
 30
0.0
 40
2.0
100
AcDbArc
 50
0.0
 51
90.0
  0
LINE
  5
38D
330
1F
100
AcDbEntity
  8
CV-SAND2
  6
BYBLOCK
 62
     5
100
AcDbLine
 10
151.8353240152144
 20
150.8634992363118
 30
0.0
 11
195.8353240152144
 21
150.8634992363118
 31
0.0
  0
CIRCLE
  5
391
330
1F
100
AcDbEntity
  8
CV-SAND1
  6
BYBLOCK
 62
     5
100
AcDbCircle
 10
17.87776033161106
 20
139.8634992363118
 30
0.0
 40
1.6
  0
CIRCLE
  5
392
330
1F
100
AcDbEntity
  8
CV-SAND1
  6
BYBLOCK
 62
     5
100
AcDbCircle
 10
112.8777603316109
 20
139.8634992363118
 30
0.0
 40
1.6
  0
CIRCLE
  5
393
330
1F
100
AcDbEntity
  8
CV-SAND1
  6
BYBLOCK
 62
     5
100
AcDbCircle
 10
112.8777603316109
 20
14.91931626938404
 30
0.0
 40
1.6
  0
CIRCLE
  5
394
330
1F
100
AcDbEntity
  8
CV-SAND1
  6
BYBLOCK
 62
     5
100
AcDbCircle
 10
17.87776033161106
 20
14.91931626938404
 30
0.0
 40
1.6
  0
CIRCLE
  5
397
330
1F
100
AcDbEntity
  8
CV-SAND2
  6
BYBLOCK
 62
     5
100
AcDbCircle
 10
126.5111288299983
 20
139.8634992363118
 30
0.0
 40
1.6
  0
CIRCLE
  5
398
330
1F
100
AcDbEntity
  8
CV-SAND2
  6
BYBLOCK
 62
     5
100
AcDbCircle
 10
221.5111288299981
 20
139.8634992363118
 30
0.0
 40
1.6
  0
CIRCLE
  5
399
330
1F
100
AcDbEntity
  8
CV-SAND2
  6
BYBLOCK
 62
     5
100
AcDbCircle
 10
221.5111288299981
 20
14.91931626938407
 30
0.0
 40
1.6
  0
CIRCLE
  5
39A
330
1F
100
AcDbEntity
  8
CV-SAND2
  6
BYBLOCK
 62
     5
100
AcDbCircle
 10
126.5111288299983
 20
14.91931626938407
 30
0.0
 40
1.6
  0
ARC
  5
3A7
330
1F
100
AcDbEntity
  8
CV-SAND1
  6
BYBLOCK
 62
     5
100
AcDbCircle
 10
40.37776033161105
 20
133.5634992363117
 30
0.0
 40
2.0
100
AcDbArc
 50
90.0
 51
270.0
  0
ARC
  5
3A8
330
1F
100
AcDbEntity
  8
CV-SAND1
  6
BYBLOCK
 62
     5
100
AcDbCircle
 10
90.37776033161106
 20
133.5634992363117
 30
0.0
 40
2.0
100
AcDbArc
 50
270.0
 51
90.0
  0
CIRCLE
  5
3A9
330
1F
100
AcDbEntity
  8
CV-SAND1
  6
BYBLOCK
 62
     5
100
AcDbCircle
 10
97.37776033161106
 20
123.5634992363118
 30
0.0
 40
2.0
  0
CIRCLE
  5
3AA
330
1F
100
AcDbEntity
  8
CV-SAND1
  6
BYBLOCK
 62
     5
100
AcDbCircle
 10
107.377760331611
 20
123.5634992363118
 30
0.0
 40
2.0
  0
CIRCLE
  5
3AB
330
1F
100
AcDbEntity
  8
CV-SAND1
  6
BYBLOCK
 62
     5
100
AcDbCircle
 10
97.37776033161106
 20
113.5634992363117
 30
0.0
 40
2.0
  0
CIRCLE
  5
3AC
330
1F
100
AcDbEntity
  8
CV-SAND1
  6
BYBLOCK
 62
     5
100
AcDbCircle
 10
107.377760331611
 20
113.5634992363117
 30
0.0
 40
2.0
  0
CIRCLE
  5
3AD
330
1F
100
AcDbEntity
  8
CV-SAND1
  6
BYBLOCK
 62
     5
100
AcDbCircle
 10
97.37776033161106
 20
103.5634992363117
 30
0.0
 40
2.0
  0
CIRCLE
  5
3AE
330
1F
100
AcDbEntity
  8
CV-SAND1
  6
BYBLOCK
 62
     5
100
AcDbCircle
 10
107.377760331611
 20
103.5634992363117
 30
0.0
 40
2.0
  0
CIRCLE
  5
3AF
330
1F
100
AcDbEntity
  8
CV-SAND1
  6
BYBLOCK
 62
     5
100
AcDbCircle
 10
97.37776033161106
 20
93.56349923631176
 30
0.0
 40
2.0
  0
CIRCLE
  5
3B0
330
1F
100
AcDbEntity
  8
CV-SAND1
  6
BYBLOCK
 62
     5
100
AcDbCircle
 10
107.377760331611
 20
93.56349923631176
 30
0.0
 40
2.0
  0
CIRCLE
  5
3B1
330
1F
100
AcDbEntity
  8
CV-SAND1
  6
BYBLOCK
 62
     5
100
AcDbCircle
 10
97.37776033161106
 20
83.56349923631176
 30
0.0
 40
2.0
  0
CIRCLE
  5
3B2
330
1F
100
AcDbEntity
  8
CV-SAND1
  6
BYBLOCK
 62
     5
100
AcDbCircle
 10
107.377760331611
 20
83.56349923631176
 30
0.0
 40
2.0
  0
CIRCLE
  5
3D6
330
1F
100
AcDbEntity
  8
CV-SAND2
  6
BYBLOCK
 62
     5
100
AcDbCircle
 10
185.597540904491
 20
51.99309775284782
 30
0.0
 40
2.0
  0
CIRCLE
  5
3D7
330
1F
100
AcDbEntity
  8
CV-SAND2
  6
BYBLOCK
 62
     5
100
AcDbCircle
 10
185.5273929044911
 20
71.91870775284784
 30
0.0
 40
2.0
  0
CIRCLE
  5
3D8
330
1F
100
AcDbEntity
  8
CV-SAND2
  6
BYBLOCK
 62
     5
100
AcDbCircle
 10
212.048125904491
 20
71.70822775284782
 30
0.0
 40
2.0
  0
CIRCLE
  5
3D9
330
1F
100
AcDbEntity
  8
CV-SAND2
  6
BYBLOCK
 62
     5
100
AcDbCircle
 10
134.0111288299983
 20
34.59140775284793
 30
0.0
 40
2.0
  0
CIRCLE
  5
3DA
330
1F
100
AcDbEntity
  8
CV-SAND2
  6
BYBLOCK
 62
     5
100
AcDbCircle
 10
214.0111288299984
 20
34.59140775284793
 30
0.0
 40
2.0
  0
CIRCLE
  5
3DB
330
1F
100
AcDbEntity
  8
CV-SAND1
  6
BYBLOCK
 62
     5
100
AcDbCircle
 10
76.2869200179915
 20
125.3234992363117
 30
0.0
 40
1.6
  0
CIRCLE
  5
3DC
330
1F
100
AcDbEntity
  8
CV-SAND1
  6
BYBLOCK
 62
     5
100
AcDbCircle
 10
24.21692001799158
 20
120.2434992363118
 30
0.0
 40
1.6
  0
CIRCLE
  5
3DD
330
1F
100
AcDbEntity
  8
CV-SAND1
  6
BYBLOCK
 62
     5
100
AcDbCircle
 10
24.21692001799158
 20
92.30349923631171
 30
0.0
 40
1.6
  0
CIRCLE
  5
3DE
330
1F
100
AcDbEntity
  8
CV-SAND1
  6
BYBLOCK
 62
     5
100
AcDbCircle
 10
75.01692001799152
 20
77.06349923631177
 30
0.0
 40
1.6
  0
CIRCLE
  5
3DF
330
1F
100
AcDbEntity
  8
CV-SAND1
  6
BYBLOCK
 62
     5
100
AcDbCircle
 10
17.87776033161106
 20
70.9408741139658
 30
0.0
 40
2.0
  0
CIRCLE
  5
3E0
330
1F
100
AcDbEntity
  8
CV-SAND1
  6
BYBLOCK
 62
     5
100
AcDbCircle
 10
17.87776033161106
 20
80.94087411396583
 30
0.0
 40
2.0
  0
CIRCLE
  5
41B
330
1F
100
AcDbEntity
  8
CV-SAND2
 62
     5
100
AcDbCircle
 10
173.8353240152144
 20
122.3914077528479
 30
0.0
 40
1.5
  0
CIRCLE
  5
41C
330
1F
100
AcDbEntity
  8
CV-SAND2
 62
     5
100
AcDbCircle
 10
173.8353240152144
 20
85.39140775284793
 30
0.0
 40
1.5
  0
ARC
  5
4A3
330
1F
100
AcDbEntity
  8
CV-SAND2
  6
BYBLOCK
 62
     5
100
AcDbCircle
 10
141.0111288299983
 20
34.59140775284793
 30
0.0
 40
1.5
100
AcDbArc
 50
90.0
 51
270.0
  0
ARC
  5
4A5
330
1F
100
AcDbEntity
  8
CV-SAND2
  6
BYBLOCK
 62
     5
100
AcDbCircle
 10
207.0111288299984
 20
34.59140775284793
 30
0.0
 40
1.5
100
AcDbArc
 50
270.0
 51
90.0
  0
LINE
  5
4A8
330
1F
100
AcDbEntity
  8
CV-SAND2
 62
     5
100
AcDbLine
 10
141.0111288299983
 20
36.09140775284793
 30
0.0
 11
207.0111288299984
 21
36.09140775284793
 31
0.0
  0
LINE
  5
4A9
330
1F
100
AcDbEntity
  8
CV-SAND2
 62
     5
100
AcDbLine
 10
141.0111288299983
 20
33.09140775284793
 30
0.0
 11
207.0111288299984
 21
33.09140775284793
 31
0.0
  0
ENDSEC
  0
SECTION
  2
OBJECTS
  0
DICTIONARY
  5
C
330
0
100
AcDbDictionary
  3
ACAD_CIP_PREVIOUS_PRODUCT_INFO
350
216
  3
ACAD_DETAILVIEWSTYLE
350
21B
  3
ACAD_GROUP
350
D
  3
ACAD_MLINESTYLE
350
17
  3
ACAD_SCALELIST
350
10C
  3
ACAD_SECTIONVIEWSTYLE
350
219
  3
ACDBVARIABLEDICTIONARY
350
5E
  3
APPDATA
350
548
  3
DWGPROPS
350
54B
  0
DICTIONARY
  5
1FF
330
2
100
AcDbDictionary
280
     1
  3
ACAD_LAYERSTATES
360
200
  0
DICTIONARY
  5
1CE
330
1F
100
AcDbDictionary
280
     1
  3
ACAD_SORTENTS
360
4A7
  0
XRECORD
  5
216
102
{ACAD_REACTORS
330
C
102
}
330
C
100
AcDbXrecord
300
ACD
300
2018
300
ACD_F_S
  0
DICTIONARY
  5
21B
102
{ACAD_REACTORS
330
C
102
}
330
C
100
AcDbDictionary
  0
DICTIONARY
  5
D
102
{ACAD_REACTORS
330
C
102
}
330
C
100
AcDbDictionary
  0
DICTIONARY
  5
17
102
{ACAD_REACTORS
330
C
102
}
330
C
100
AcDbDictionary
  3
STANDARD
350
18
  0
DICTIONARY
  5
10C
102
{ACAD_REACTORS
330
C
102
}
330
C
100
AcDbDictionary
  0
DICTIONARY
  5
219
102
{ACAD_REACTORS
330
C
102
}
330
C
100
AcDbDictionary
  0
DICTIONARY
  5
5E
102
{ACAD_REACTORS
330
C
102
}
330
C
100
AcDbDictionary
  3
CENTEREXE
350
259
  3
CENTERLTYPEFILE
350
25A
  3
DIMASSOC
350
5F
  3
HIDETEXT
350
63
  0
DICTIONARY
  5
548
102
{ACAD_REACTORS
330
C
102
}
330
C
100
AcDbDictionary
  0
XRECORD
  5
54B
102
{ACAD_REACTORS
330
C
102
}
330
C
100
AcDbXrecord
  1
DWGPROPS COOKIE
  2

  3

  4

  6

  7

  8
Silvana Di Fede
  9

300
=
301
=
302
=
303
=
304
=
305
=
306
=
307
=
308
=
309
=
 40
0.0
 41
2458581.377708334
 42
2458582.514692697
  1

 90
        0
  0
DICTIONARY
  5
200
102
{ACAD_REACTORS
330
1FF
102
}
330
1FF
100
AcDbDictionary
  0
SORTENTSTABLE
  5
4A7
102
{ACAD_REACTORS
330
1CE
102
}
330
1CE
100
AcDbSortentsTable
330
1F
331
362
  5
362
331
363
  5
363
331
369
  5
369
331
36A
  5
36A
331
36B
  5
36B
331
36C
  5
36C
331
36E
  5
36E
331
36F
  5
36F
331
370
  5
370
331
371
  5
371
331
372
  5
372
331
373
  5
373
331
374
  5
374
331
375
  5
375
331
376
  5
376
331
377
  5
377
331
378
  5
378
331
379
  5
379
331
37A
  5
37A
331
37B
  5
37B
331
37C
  5
37C
331
37D
  5
37D
331
37E
  5
37E
331
37F
  5
37F
331
380
  5
380
331
387
  5
387
331
388
  5
388
331
389
  5
389
331
38A
  5
38A
331
38B
  5
38B
331
38C
  5
38C
331
38D
  5
38D
331
391
  5
391
331
392
  5
392
331
393
  5
393
331
394
  5
394
331
397
  5
397
331
398
  5
398
331
399
  5
399
331
39A
  5
39A
331
3A7
  5
3A7
331
3A8
  5
3A8
331
3A9
  5
3A9
331
3AA
  5
3AA
331
3AB
  5
3AB
331
3AC
  5
3AC
331
3AD
  5
3AD
331
3AE
  5
3AE
331
3AF
  5
3AF
331
3B0
  5
3B0
331
3B1
  5
3B1
331
3B2
  5
3B2
331
3D6
  5
3D6
331
3D7
  5
3D7
331
3D8
  5
3D8
331
3D9
  5
3D9
331
3DA
  5
3DA
331
3DB
  5
3DB
331
3DC
  5
3DC
331
3DD
  5
3DD
331
3DE
  5
3DE
331
3DF
  5
3DF
331
3E0
  5
3E0
331
41B
  5
41B
331
41C
  5
41C
331
4A3
  5
4A3
331
4A5
  5
4A5
  0
MLINESTYLE
  5
18
102
{ACAD_REACTORS
330
17
102
}
330
17
100
AcDbMlineStyle
  2
STANDARD
 70
     0
  3

 62
   256
 51
90.0
 52
90.0
 71
     2
 49
0.5
 62
   256
  6
BYLAYER
 49
-0.5
 62
   256
  6
BYLAYER
  0
DICTIONARYVAR
  5
259
102
{ACAD_REACTORS
330
5E
102
}
330
5E
100
DictionaryVariables
280
     0
  1
3.500000
  0
DICTIONARYVAR
  5
25A
102
{ACAD_REACTORS
330
5E
102
}
330
5E
100
DictionaryVariables
280
     0
  1
acadiso.lin
  0
DICTIONARYVAR
  5
5F
102
{ACAD_REACTORS
330
5E
102
}
330
5E
100
DictionaryVariables
280
     0
  1
2
  0
DICTIONARYVAR
  5
63
102
{ACAD_REACTORS
330
5E
102
}
330
5E
100
DictionaryVariables
280
     0
  1
1
  0
ENDSEC
  0
EOF
